<svg width="41" height="23" viewBox="0 0 41 23" fill="none" xmlns="http://www.w3.org/2000/svg">
<g clip-path="url(#clip0_2_23)">
<path d="M22.9323 11.5002C22.9323 17.8514 17.7986 23 11.4663 23C5.13402 23 0 17.8502 0 11.5002C0 5.15017 5.13363 0 11.4663 0C17.799 0 22.9323 5.14901 22.9323 11.5002ZM35.5108 11.5002C35.5108 17.4785 32.944 22.3267 29.7776 22.3267C26.6113 22.3267 24.0445 17.4785 24.0445 11.5002C24.0445 5.52192 26.6109 0.673652 29.7773 0.673652C32.9436 0.673652 35.5104 5.52037 35.5104 11.5002H35.5108ZM40.6557 11.5002C40.6557 16.8553 39.7531 21.1991 38.6394 21.1991C37.5256 21.1991 36.6234 16.8564 36.6234 11.5002C36.6234 6.14397 37.526 1.80132 38.6394 1.80132C39.7527 1.80132 40.6557 6.14358 40.6557 11.5002" fill="black"/>
</g>
<defs>
<clipPath id="clip0_2_23">
<rect width="40.6557" height="23" fill="white"/>
</clipPath>
</defs>
</svg>
